<?xml version="1.0" encoding="UTF-8" standalone="no"?>
<svg
   width="100"
   height="50"
   viewBox="0 0 100 50"
   fill="none"
   version="1.1"
   id="svg18"
   sodipodi:docname="logo-suap_curvas_branco.svg"
   inkscape:version="1.3.2 (091e20ef0f, 2023-11-25)"
   xmlns:inkscape="http://www.inkscape.org/namespaces/inkscape"
   xmlns:sodipodi="http://sodipodi.sourceforge.net/DTD/sodipodi-0.dtd"
   xmlns="http://www.w3.org/2000/svg"
   xmlns:svg="http://www.w3.org/2000/svg">
  <defs
     id="defs22" />
  <sodipodi:namedview
     id="namedview20"
     pagecolor="#ffffff"
     bordercolor="#666666"
     borderopacity="1.0"
     inkscape:pageshadow="2"
     inkscape:pageopacity="0.0"
     inkscape:pagecheckerboard="0"
     showgrid="false"
     inkscape:zoom="6.895"
     inkscape:cx="49.311095"
     inkscape:cy="23.930384"
     inkscape:window-width="1920"
     inkscape:window-height="1008"
     inkscape:window-x="0"
     inkscape:window-y="0"
     inkscape:window-maximized="1"
     inkscape:current-layer="svg18"
     inkscape:showpageshadow="2"
     inkscape:deskcolor="#d1d1d1" />
  <path
     d="m 0.732763,8.00293 c 0,3.21237 2.310567,5.91767 7.270177,7.72097 3.60706,1.3525 5.01586,2.5933 5.01586,4.9596 0,2.311 -1.6905,4.0578 -5.24112,4.0578 -2.48005,0 -5.07237,-1.014 -6.59391,-1.9155 L 0,26.5449 c 1.91629,1.1272 4.67762,1.9163 7.66493,1.9163 6.36867,0 10.14447,-3.3811 10.14447,-8.2285 0,-4.0578 -2.4798,-6.4244 -7.1574,-8.1722 C 7.10117,10.652 5.52337,9.63747 5.52337,7.38316 c 0,-2.02928 1.5778,-3.71983 4.50863,-3.71983 2.536,0 4.5088,0.95803 5.5794,1.57852 L 16.7951,1.69079 C 15.3296,0.733 12.9063,0 10.1445,0 4.33984,0 0.732763,3.60707 0.732763,8.00293 Z"
     fill="#7a7f80"
     id="path2"
     style="display:inline;fill:#f9f9f9" />
  <path
     d="M 39.2254,0.620241 V 17.3024 c 0,0.958 -0.1692,1.8598 -0.451,2.5358 -0.9012,2.2546 -3.2123,4.5651 -6.5376,4.5651 -4.4524,0 -6.0864,-3.5506 -6.0864,-8.7359 V 0.620241 H 21.191 V 16.5694 c 0,9.5247 5.1284,11.9485 9.4115,11.9485 4.8469,0 7.7777,-2.875 9.0175,-5.0726 h 0.1127 l 0.2815,4.4524 h 4.3959 C 44.2413,25.7561 44.1848,23.2765 44.1848,20.402 V 0.620241 Z"
     fill="#7a7f80"
     id="path4"
     style="display:inline;fill:#f9f9f9" />
  <path
     d="m 49.3699,2.36729 1.1273,3.32509 c 1.9158,-1.29652 4.5646,-2.02905 7.1574,-2.02905 5.5792,-0.05625 6.1997,4.05784 6.1997,6.31215 v 0.56402 c -10.5395,-0.0565 -16.4007,3.5503 -16.4007,10.144 0,3.9458 2.8181,7.8344 8.3412,7.8344 3.8884,0 6.8759,-1.9168 8.341,-4.0581 h 0.169 l 0.451,3.4379 h 4.4524 C 68.9264,26.0376 68.8137,23.7273 68.8137,21.3602 V 11.159 C 68.8137,5.69238 66.7844,2.24444e-6 58.3871,2.24444e-6 54.9496,2.24444e-6 51.6242,0.958023 49.3699,2.36729 Z M 52.413,20.1207 c 0,-5.2984 6.1434,-6.2566 11.5538,-6.1439 v 4.7346 c 0,0.5073 -0.0565,1.0706 -0.2258,1.5776 -0.7885,2.311 -3.0993,4.5651 -6.7064,4.5651 -2.4793,0 -4.6216,-1.4653 -4.6216,-4.7334 z"
     fill="#7a7f80"
     id="path6"
     style="display:inline;fill:#f9f9f9" />
  <path
     d="m 78.5636,5.29787 h -0.113 L 78.1689,0.620248 h -4.4521 c 0.1687,2.592082 0.225,5.410142 0.225,8.904472 V 50 h 4.9596 V 24.2341 h 0.113 c 1.6341,2.7053 4.7339,4.2838 8.397,4.2838 6.3686,0 12.3992,-4.8469 12.3992,-14.6538 C 99.8106,5.57987 94.8513,1.04181e-5 88.2013,1.04181e-5 83.8048,1.04181e-5 80.5362,1.9163 78.5636,5.29787 Z m 0.5638,13.52583 c -0.1695,-0.6198 -0.226,-1.3528 -0.226,-2.0286 v -4.7345 c 0,-0.6193 0.1693,-1.3526 0.282,-1.9721 0.9578,-3.77587 4.1706,-6.1434 7.5519,-6.1434 5.2417,0 8.0595,4.67786 8.0595,10.1447 0,6.2559 -3.0434,10.5395 -8.285,10.5395 -3.4941,0 -6.5374,-2.3673 -7.3824,-5.8056 z"
     fill="#7a7f80"
     id="path8"
     style="display:inline;fill:#f9f9f9" />
  <g
     aria-label="IFMA"
     id="text6120"
     style="font-size:19.3333px;line-height:1.25;fill:#2f9e41"
     transform="translate(-2)">
    <path
       d="M 28.512985,35.859459 V 49.953434 H 25.61299 V 35.859459 Z"
       style="font-weight:bold;font-family:FreeSans;-inkscape-font-specification:'FreeSans Bold'"
       id="path102349" />
    <path
       d="m 34.506297,43.882778 v 6.070656 H 31.606302 V 35.859459 h 9.89865 v 2.416662 h -6.998655 v 3.189994 h 6.167323 v 2.416663 z"
       style="font-weight:bold;font-family:FreeSans;-inkscape-font-specification:'FreeSans Bold'"
       id="path102346" />
    <path
       d="M 46.724943,38.97212 V 49.953434 H 43.824948 V 35.859459 h 4.330659 l 2.551996,11.213313 2.474662,-11.213313 h 4.369326 V 49.953434 H 54.651596 V 38.97212 L 52.1576,49.953434 h -2.899995 z"
       style="font-weight:bold;font-family:FreeSans;-inkscape-font-specification:'FreeSans Bold'"
       id="path102343" />
    <path
       d="M 68.474883,47.111439 H 63.196892 L 62.24956,49.953434 H 59.291565 L 64.29889,35.859459 h 3.209328 l 4.871991,14.093975 h -2.977328 z m -0.792666,-2.416663 -1.836663,-5.50999 -1.836664,5.50999 z"
       style="font-weight:bold;font-family:FreeSans;-inkscape-font-specification:'FreeSans Bold'"
       id="path102340" />
  </g>
</svg>
